# xmcd
#
# Track frame offsets:
#	150
#	12952
#	25671
#	39512
#	52455
#	65994
#	80413
#	94949
#	109326
#	123217
#	137267
#	150502
#	163919
#	176269
#	189134
#	202490
#	213762
#	224829
#	236469
#	247337
#	258306
#	268946
#	280224
#	291328
#	302197
#
# Disc length: 4174 seconds
#
# Revision: 1
# Processed by: cddbd v1.5.1PL0 Copyright (c) Steve Scherf et al.
# Submitted via: audiograbber 1.83.01
#
DISCID=82104c19
DTITLE=Various Artist - Memphis Shakedown - CD 1
DYEAR=2005
DGENRE=Blues
TTITLE0=Jack Kelly and his South Memphis Jug Band - Highway No. 61 Blues (Jack Ke
TTITLE0=lly, vcl.)
TTITLE1=Jack Kelly and his South Memphis Jug Band - Highway No. 61 Blues No. 2 (J
TTITLE1=ack Kelly, vcl.)
TTITLE2=Jack Kelly and his South Memphis Jug Band - Red Ripe Tomatoes
TTITLE3=Jack Kelly and his South Memphis Jug Band - Believe I'll Go Back Home
TTITLE4=Jack Kelly and his South Memphis Jug Band - Country Woman
TTITLE5=Jack Kelly and his South Memphis Jug Band - Cheatin' Woman
TTITLE6=Jack Kelly and his South Memphis Jug Band - Ko-Ko-Mo Blues (take 1)
TTITLE7=Jack Kelly and his South Memphis Jug Band - Ko-Ko-Mo Blues (take 2)
TTITLE8=Jack Kelly and his South Memphis Jug Band - Cold Iron Bed
TTITLE9=Jack Kelly and his South Memphis Jug Band - R.F.C. Blues
TTITLE10=Jack Kelly and his South Memphis Jug Band - Policy Rag
TTITLE11=Jack Kelly and his South Memphis Jug Band - President Blues
TTITLE12=Jack Kelly and his South Memphis Jug Band - Highway No. 61 Blues (Will B
TTITLE12=atts, vcl.)
TTITLE13=Jack Kelly and his South Memphis Jug Band - Cadillac Baby
TTITLE14=Jack Kelly and his South Memphis Jug Band - Doctor Medicine
TTITLE15=Jack Kelly and his South Memphis Jug Band - Lightnin' Blues
TTITLE16=Jack Kelly and his South Memphis Jug Band - Betty Sue Blues
TTITLE17=Jack Kelly and his South Memphis Jug Band - Flower Blues
TTITLE18=Jack Kelly and his South Memphis Jug Band - Joe Louis Special
TTITLE19=Jack Kelly and his South Memphis Jug Band - High Behind Blues
TTITLE20=Jack Kelly and his South Memphis Jug Band - You Done Done It
TTITLE21=Jack Kelly and his South Memphis Jug Band - Diamond Buyer Blues
TTITLE22=Jack Kelly and his South Memphis Jug Band - World Wandering Blues
TTITLE23=Jack Kelly and his South Memphis Jug Band - Neck Bone Blues
TTITLE24=Jack Kelly and his South Memphis Jug Band - Men Fooler Blues
EXTD=
EXTT0=
EXTT1=
EXTT2=
EXTT3=
EXTT4=
EXTT5=
EXTT6=
EXTT7=
EXTT8=
EXTT9=
EXTT10=
EXTT11=
EXTT12=
EXTT13=
EXTT14=
EXTT15=
EXTT16=
EXTT17=
EXTT18=
EXTT19=
EXTT20=
EXTT21=
EXTT22=
EXTT23=
EXTT24=
PLAYORDER=
